<svg width="604" height="48" viewBox="0 0 604 48" fill="none" xmlns="http://www.w3.org/2000/svg">
<path d="M7.82781 45.09C7.48781 46.01 6.93781 46.7 6.17781 47.16C5.43781 47.62 4.67781 47.85 3.89781 47.85H0.747813L18.2678 3.03C18.5878 2.19 19.0778 1.55 19.7378 1.11C20.3978 0.649998 21.1678 0.419998 22.0478 0.419998H25.2278L7.82781 45.09ZM21.7731 45.09C21.4331 46.01 20.8831 46.7 20.1231 47.16C19.3831 47.62 18.6231 47.85 17.8431 47.85H14.6931L32.2131 3.03C32.5331 2.19 33.0231 1.55 33.6831 1.11C34.3431 0.649998 35.1131 0.419998 35.9931 0.419998H39.1731L21.7731 45.09ZM74.4222 23.43C75.9022 23.43 77.1922 23.25 78.2922 22.89C79.3922 22.51 80.3022 21.98 81.0222 21.3C81.7622 20.6 82.3122 19.76 82.6722 18.78C83.0322 17.78 83.2122 16.67 83.2122 15.45C83.2122 14.29 83.0322 13.24 82.6722 12.3C82.3122 11.36 81.7722 10.56 81.0522 9.9C80.3322 9.24 79.4222 8.74 78.3222 8.4C77.2222 8.04 75.9222 7.86 74.4222 7.86H68.3922V23.43H74.4222ZM74.4222 1.62C77.3222 1.62 79.8322 1.96 81.9522 2.64C84.0722 3.32 85.8222 4.27 87.2022 5.49C88.5822 6.71 89.6022 8.17 90.2622 9.87C90.9422 11.57 91.2822 13.43 91.2822 15.45C91.2822 17.55 90.9322 19.48 90.2322 21.24C89.5322 22.98 88.4822 24.48 87.0822 25.74C85.6822 27 83.9222 27.98 81.8022 28.68C79.7022 29.38 77.2422 29.73 74.4222 29.73H68.3922V45H60.3222V1.62H74.4222ZM117.344 28.62L112.064 14.19C111.804 13.55 111.534 12.79 111.254 11.91C110.974 11.03 110.694 10.08 110.414 9.06C110.154 10.08 109.884 11.04 109.604 11.94C109.324 12.82 109.054 13.59 108.794 14.25L103.544 28.62H117.344ZM131.594 45H125.354C124.654 45 124.084 44.83 123.644 44.49C123.204 44.13 122.874 43.69 122.654 43.17L119.414 34.32H101.444L98.2038 43.17C98.0438 43.63 97.7338 44.05 97.2738 44.43C96.8138 44.81 96.2438 45 95.5638 45H89.2637L106.334 1.62H114.554L131.594 45ZM162.165 8.25H149.085V45H141.015V8.25H127.935V1.62H162.165V8.25ZM180.952 22.26C182.472 22.26 183.792 22.07 184.912 21.69C186.052 21.31 186.982 20.79 187.702 20.13C188.442 19.45 188.992 18.65 189.352 17.73C189.712 16.81 189.892 15.8 189.892 14.7C189.892 12.5 189.162 10.81 187.702 9.63C186.262 8.45 184.052 7.86 181.072 7.86H175.912V22.26H180.952ZM201.712 45H194.422C193.042 45 192.042 44.46 191.422 43.38L182.302 29.49C181.962 28.97 181.582 28.6 181.162 28.38C180.762 28.16 180.162 28.05 179.362 28.05H175.912V45H167.842V1.62H181.072C184.012 1.62 186.532 1.93 188.632 2.55C190.752 3.15 192.482 4 193.822 5.1C195.182 6.2 196.182 7.52 196.822 9.06C197.462 10.58 197.782 12.26 197.782 14.1C197.782 15.56 197.562 16.94 197.122 18.24C196.702 19.54 196.082 20.72 195.262 21.78C194.462 22.84 193.462 23.77 192.262 24.57C191.082 25.37 189.732 26 188.212 26.46C188.732 26.76 189.212 27.12 189.652 27.54C190.092 27.94 190.492 28.42 190.852 28.98L201.712 45ZM214.496 45H206.396V1.62H214.496V45ZM253.999 34.77C254.439 34.77 254.829 34.94 255.169 35.28L258.349 38.73C256.589 40.91 254.419 42.58 251.839 43.74C249.279 44.9 246.199 45.48 242.599 45.48C239.379 45.48 236.479 44.93 233.899 43.83C231.339 42.73 229.149 41.2 227.329 39.24C225.509 37.28 224.109 34.94 223.129 32.22C222.169 29.5 221.689 26.53 221.689 23.31C221.689 20.05 222.209 17.07 223.249 14.37C224.289 11.65 225.749 9.31 227.629 7.35C229.529 5.39 231.789 3.87 234.409 2.79C237.029 1.69 239.929 1.14 243.109 1.14C246.269 1.14 249.069 1.66 251.509 2.7C253.969 3.74 256.059 5.1 257.779 6.78L255.079 10.53C254.919 10.77 254.709 10.98 254.449 11.16C254.209 11.34 253.869 11.43 253.429 11.43C253.129 11.43 252.819 11.35 252.499 11.19C252.179 11.01 251.829 10.8 251.449 10.56C251.069 10.3 250.629 10.02 250.129 9.72C249.629 9.42 249.049 9.15 248.389 8.91C247.729 8.65 246.959 8.44 246.079 8.28C245.219 8.1 244.219 8.01 243.079 8.01C241.139 8.01 239.359 8.36 237.739 9.06C236.139 9.74 234.759 10.74 233.599 12.06C232.439 13.36 231.539 14.96 230.899 16.86C230.259 18.74 229.939 20.89 229.939 23.31C229.939 25.75 230.279 27.92 230.959 29.82C231.659 31.72 232.599 33.32 233.779 34.62C234.959 35.92 236.349 36.92 237.949 37.62C239.549 38.3 241.269 38.64 243.109 38.64C244.209 38.64 245.199 38.58 246.079 38.46C246.979 38.34 247.799 38.15 248.539 37.89C249.299 37.63 250.009 37.3 250.669 36.9C251.349 36.48 252.019 35.97 252.679 35.37C252.879 35.19 253.089 35.05 253.309 34.95C253.529 34.83 253.759 34.77 253.999 34.77ZM271.977 45H263.877V1.62H271.977V45ZM323.059 23.31C323.059 26.49 322.529 29.44 321.469 32.16C320.429 34.86 318.949 37.2 317.029 39.18C315.109 41.16 312.799 42.71 310.099 43.83C307.399 44.93 304.399 45.48 301.099 45.48C297.819 45.48 294.829 44.93 292.129 43.83C289.429 42.71 287.109 41.16 285.169 39.18C283.249 37.2 281.759 34.86 280.699 32.16C279.639 29.44 279.109 26.49 279.109 23.31C279.109 20.13 279.639 17.19 280.699 14.49C281.759 11.77 283.249 9.42 285.169 7.44C287.109 5.46 289.429 3.92 292.129 2.82C294.829 1.7 297.819 1.14 301.099 1.14C303.299 1.14 305.369 1.4 307.309 1.92C309.249 2.42 311.029 3.14 312.649 4.08C314.269 5 315.719 6.13 316.999 7.47C318.299 8.79 319.399 10.27 320.299 11.91C321.199 13.55 321.879 15.33 322.339 17.25C322.819 19.17 323.059 21.19 323.059 23.31ZM314.809 23.31C314.809 20.93 314.489 18.8 313.849 16.92C313.209 15.02 312.299 13.41 311.119 12.09C309.939 10.77 308.499 9.76 306.799 9.06C305.119 8.36 303.219 8.01 301.099 8.01C298.979 8.01 297.069 8.36 295.369 9.06C293.689 9.76 292.249 10.77 291.049 12.09C289.869 13.41 288.959 15.02 288.319 16.92C287.679 18.8 287.359 20.93 287.359 23.31C287.359 25.69 287.679 27.83 288.319 29.73C288.959 31.61 289.869 33.21 291.049 34.53C292.249 35.83 293.689 36.83 295.369 37.53C297.069 38.23 298.979 38.58 301.099 38.58C303.219 38.58 305.119 38.23 306.799 37.53C308.499 36.83 309.939 35.83 311.119 34.53C312.299 33.21 313.209 31.61 313.849 29.73C314.489 27.83 314.809 25.69 314.809 23.31ZM367.836 9.51C367.596 9.93 367.336 10.24 367.056 10.44C366.796 10.62 366.466 10.71 366.066 10.71C365.646 10.71 365.186 10.56 364.686 10.26C364.206 9.94 363.626 9.59 362.946 9.21C362.266 8.83 361.466 8.49 360.546 8.19C359.646 7.87 358.576 7.71 357.336 7.71C356.216 7.71 355.236 7.85 354.396 8.13C353.556 8.39 352.846 8.76 352.266 9.24C351.706 9.72 351.286 10.3 351.006 10.98C350.726 11.64 350.586 12.37 350.586 13.17C350.586 14.19 350.866 15.04 351.426 15.72C352.006 16.4 352.766 16.98 353.706 17.46C354.646 17.94 355.716 18.37 356.916 18.75C358.116 19.13 359.346 19.54 360.606 19.98C361.866 20.4 363.096 20.9 364.296 21.48C365.496 22.04 366.566 22.76 367.506 23.64C368.446 24.5 369.196 25.56 369.756 26.82C370.336 28.08 370.626 29.61 370.626 31.41C370.626 33.37 370.286 35.21 369.606 36.93C368.946 38.63 367.966 40.12 366.666 41.4C365.386 42.66 363.816 43.66 361.956 44.4C360.096 45.12 357.966 45.48 355.566 45.48C354.186 45.48 352.826 45.34 351.486 45.06C350.146 44.8 348.856 44.42 347.616 43.92C346.396 43.42 345.246 42.82 344.166 42.12C343.086 41.42 342.126 40.64 341.286 39.78L343.656 35.91C343.856 35.63 344.116 35.4 344.436 35.22C344.756 35.02 345.096 34.92 345.456 34.92C345.956 34.92 346.496 35.13 347.076 35.55C347.656 35.95 348.346 36.4 349.146 36.9C349.946 37.4 350.876 37.86 351.936 38.28C353.016 38.68 354.306 38.88 355.806 38.88C358.106 38.88 359.886 38.34 361.146 37.26C362.406 36.16 363.036 34.59 363.036 32.55C363.036 31.41 362.746 30.48 362.166 29.76C361.606 29.04 360.856 28.44 359.916 27.96C358.976 27.46 357.906 27.04 356.706 26.7C355.506 26.36 354.286 25.99 353.046 25.59C351.806 25.19 350.586 24.71 349.386 24.15C348.186 23.59 347.116 22.86 346.176 21.96C345.236 21.06 344.476 19.94 343.896 18.6C343.336 17.24 343.056 15.57 343.056 13.59C343.056 12.01 343.366 10.47 343.986 8.97C344.626 7.47 345.546 6.14 346.746 4.98C347.946 3.82 349.426 2.89 351.186 2.19C352.946 1.49 354.966 1.14 357.246 1.14C359.806 1.14 362.166 1.54 364.326 2.34C366.486 3.14 368.326 4.26 369.846 5.7L367.836 9.51ZM399.707 28.62L394.427 14.19C394.167 13.55 393.897 12.79 393.617 11.91C393.337 11.03 393.057 10.08 392.777 9.06C392.517 10.08 392.247 11.04 391.967 11.94C391.687 12.82 391.417 13.59 391.157 14.25L385.907 28.62H399.707ZM413.957 45H407.717C407.017 45 406.447 44.83 406.007 44.49C405.567 44.13 405.237 43.69 405.017 43.17L401.777 34.32H383.807L380.567 43.17C380.407 43.63 380.097 44.05 379.637 44.43C379.177 44.81 378.607 45 377.927 45H371.627L388.697 1.62H396.917L413.957 45ZM443.857 38.34V45H418.447V1.62H426.517V38.34H443.857ZM472.539 28.62L467.259 14.19C466.999 13.55 466.729 12.79 466.449 11.91C466.169 11.03 465.889 10.08 465.609 9.06C465.349 10.08 465.079 11.04 464.799 11.94C464.519 12.82 464.249 13.59 463.989 14.25L458.739 28.62H472.539ZM486.789 45H480.549C479.849 45 479.279 44.83 478.839 44.49C478.399 44.13 478.069 43.69 477.849 43.17L474.609 34.32H456.639L453.399 43.17C453.239 43.63 452.929 44.05 452.469 44.43C452.009 44.81 451.439 45 450.759 45H444.459L461.529 1.62H469.749L486.789 45ZM521.159 4.59C521.159 5.51 520.899 6.35 520.379 7.11L498.119 38.55H520.649V45H487.649V41.82C487.649 41.42 487.719 41.04 487.859 40.68C487.999 40.3 488.179 39.95 488.399 39.63L510.719 8.04H489.059V1.62H521.159V4.59ZM550.527 28.62L545.247 14.19C544.987 13.55 544.717 12.79 544.437 11.91C544.157 11.03 543.877 10.08 543.597 9.06C543.337 10.08 543.067 11.04 542.787 11.94C542.507 12.82 542.237 13.59 541.977 14.25L536.727 28.62H550.527ZM564.777 45H558.537C557.837 45 557.267 44.83 556.827 44.49C556.387 44.13 556.057 43.69 555.837 43.17L552.597 34.32H534.627L531.387 43.17C531.227 43.63 530.917 44.05 530.457 44.43C529.997 44.81 529.427 45 528.747 45H522.447L539.517 1.62H547.737L564.777 45ZM582.378 22.26C583.898 22.26 585.218 22.07 586.338 21.69C587.478 21.31 588.408 20.79 589.128 20.13C589.868 19.45 590.418 18.65 590.778 17.73C591.138 16.81 591.318 15.8 591.318 14.7C591.318 12.5 590.588 10.81 589.128 9.63C587.688 8.45 585.478 7.86 582.498 7.86H577.338V22.26H582.378ZM603.138 45H595.848C594.468 45 593.468 44.46 592.848 43.38L583.728 29.49C583.388 28.97 583.008 28.6 582.588 28.38C582.188 28.16 581.588 28.05 580.788 28.05H577.338V45H569.268V1.62H582.498C585.438 1.62 587.958 1.93 590.058 2.55C592.178 3.15 593.908 4 595.248 5.1C596.608 6.2 597.608 7.52 598.248 9.06C598.888 10.58 599.208 12.26 599.208 14.1C599.208 15.56 598.988 16.94 598.548 18.24C598.128 19.54 597.508 20.72 596.688 21.78C595.888 22.84 594.888 23.77 593.688 24.57C592.508 25.37 591.158 26 589.638 26.46C590.158 26.76 590.638 27.12 591.078 27.54C591.518 27.94 591.918 28.42 592.278 28.98L603.138 45Z" fill="#E7E7E7"/>
</svg>
