<svg width="64" height="45" viewBox="0 0 64 45" fill="none" xmlns="http://www.w3.org/2000/svg">
<path d="M14.3909 22.43C15.8709 22.43 17.1609 22.25 18.2609 21.89C19.3609 21.51 20.2709 20.98 20.9909 20.3C21.7309 19.6 22.2809 18.76 22.6409 17.78C23.0009 16.78 23.1809 15.67 23.1809 14.45C23.1809 13.29 23.0009 12.24 22.6409 11.3C22.2809 10.36 21.7409 9.56 21.0209 8.9C20.3009 8.24 19.3909 7.74 18.2909 7.4C17.1909 7.04 15.8909 6.86 14.3909 6.86H8.36094V22.43H14.3909ZM14.3909 0.619997C17.2909 0.619997 19.8009 0.959997 21.9209 1.64C24.0409 2.32 25.7909 3.27 27.1709 4.49C28.5509 5.71 29.5709 7.17 30.2309 8.87C30.9109 10.57 31.2509 12.43 31.2509 14.45C31.2509 16.55 30.9009 18.48 30.2009 20.24C29.5009 21.98 28.4509 23.48 27.0509 24.74C25.6509 26 23.8909 26.98 21.7709 27.68C19.6709 28.38 17.2109 28.73 14.3909 28.73H8.36094V44H0.290938V0.619997H14.3909ZM60.5394 8.51C60.2994 8.93 60.0394 9.24 59.7594 9.44C59.4994 9.62 59.1694 9.71 58.7694 9.71C58.3494 9.71 57.8894 9.56 57.3894 9.26C56.9094 8.94 56.3294 8.59 55.6494 8.21C54.9694 7.83 54.1694 7.49 53.2494 7.19C52.3494 6.87 51.2794 6.71 50.0394 6.71C48.9194 6.71 47.9394 6.85 47.0994 7.13C46.2594 7.39 45.5494 7.76 44.9694 8.24C44.4094 8.72 43.9894 9.3 43.7094 9.98C43.4294 10.64 43.2894 11.37 43.2894 12.17C43.2894 13.19 43.5694 14.04 44.1294 14.72C44.7094 15.4 45.4694 15.98 46.4094 16.46C47.3494 16.94 48.4194 17.37 49.6194 17.75C50.8194 18.13 52.0494 18.54 53.3094 18.98C54.5694 19.4 55.7994 19.9 56.9994 20.48C58.1994 21.04 59.2694 21.76 60.2094 22.64C61.1494 23.5 61.8994 24.56 62.4594 25.82C63.0394 27.08 63.3294 28.61 63.3294 30.41C63.3294 32.37 62.9894 34.21 62.3094 35.93C61.6494 37.63 60.6694 39.12 59.3694 40.4C58.0894 41.66 56.5194 42.66 54.6594 43.4C52.7994 44.12 50.6694 44.48 48.2694 44.48C46.8894 44.48 45.5294 44.34 44.1894 44.06C42.8494 43.8 41.5594 43.42 40.3194 42.92C39.0994 42.42 37.9494 41.82 36.8694 41.12C35.7894 40.42 34.8294 39.64 33.9894 38.78L36.3594 34.91C36.5594 34.63 36.8194 34.4 37.1394 34.22C37.4594 34.02 37.7994 33.92 38.1594 33.92C38.6594 33.92 39.1994 34.13 39.7794 34.55C40.3594 34.95 41.0494 35.4 41.8494 35.9C42.6494 36.4 43.5794 36.86 44.6394 37.28C45.7194 37.68 47.0094 37.88 48.5094 37.88C50.8094 37.88 52.5894 37.34 53.8494 36.26C55.1094 35.16 55.7394 33.59 55.7394 31.55C55.7394 30.41 55.4494 29.48 54.8694 28.76C54.3094 28.04 53.5594 27.44 52.6194 26.96C51.6794 26.46 50.6094 26.04 49.4094 25.7C48.2094 25.36 46.9894 24.99 45.7494 24.59C44.5094 24.19 43.2894 23.71 42.0894 23.15C40.8894 22.59 39.8194 21.86 38.8794 20.96C37.9394 20.06 37.1794 18.94 36.5994 17.6C36.0394 16.24 35.7594 14.57 35.7594 12.59C35.7594 11.01 36.0694 9.47 36.6894 7.97C37.3294 6.47 38.2494 5.14 39.4494 3.98C40.6494 2.82 42.1294 1.89 43.8894 1.19C45.6494 0.489999 47.6694 0.14 49.9494 0.14C52.5094 0.14 54.8694 0.539999 57.0294 1.34C59.1894 2.14 61.0294 3.26 62.5494 4.7L60.5394 8.51Z" fill="#E7E7E7"/>
</svg>
